<?xml version="1.0" encoding="utf-8"?>
<!-- Generator: Adobe Illustrator 27.9.0, SVG Export Plug-In . SVG Version: 6.00 Build 0)  -->
<svg version="1.1" id="Layer_1" xmlns="http://www.w3.org/2000/svg" xmlns:xlink="http://www.w3.org/1999/xlink" x="0px" y="0px"
	 viewBox="0 0 512 512" style="enable-background:new 0 0 512 512;" xml:space="preserve">
<style type="text/css">
	.st0{fill:#172D36;}
	.st1{fill:#547580;}
	.st2{fill:#95A5A5;}
	.st3{fill:#7F8C8D;}
	.st4{fill:#3F5C6C;}
	.st5{fill:#35495E;}
</style>
<g id="Page-1">
	<g id="_x30_54---Armor">
		<path id="Shape" class="st0" d="M416.9,201.5L416.9,201.5c8.4,60.7,32.1,118.1,68.8,167.1c5,6.8,4.5,16.1-1.2,22.3
			C455.4,423,364.6,512,256,512S56.6,423,27.5,390.9c-5.7-6.2-6.2-15.6-1.2-22.3c36.7-48.9,60.4-106.4,68.8-167v-0.1H416.9z"/>
		<path id="Shape_00000120549226391194812990000011646627528123045510_" class="st1" d="M377.4,268c-0.2,18.1,2.8,36,8.9,53
			c1.3,3.4,0.3,7.3-2.4,9.7c-16,13.6-34.3,24.4-53.9,31.9H182c-19.7-7.5-37.9-18.3-53.9-31.9c-2.7-2.4-3.7-6.3-2.4-9.7
			c6.1-17,9.1-35,8.9-53L377.4,268z"/>
		<path id="Shape_00000085242212766735249910000008763928005168791169_" class="st2" d="M331.9,400.6c-20,18.5-42.6,33.9-67.1,45.8
			l-5.3,2.4c-2.3,0.9-4.8,0.9-7.1,0l-5.3-2.4c-24.5-11.9-47.1-27.3-67.1-45.8c-2.2-2.1-3.2-5.1-2.6-8.1c7.7-35.5,9-72.1,4-108h149.2
			c-5,36-3.7,72.5,4,108C335.1,395.5,334.1,398.5,331.9,400.6L331.9,400.6z"/>
		<g>
			<path id="Shape_00000073706287710777959570000002160126961310887593_" class="st3" d="M264.8,397.2v49.2l-5.3,2.4
				c-2.3,0.9-4.8,0.9-7.1,0l-5.3-2.4v-49.2c0-4.9,4-8.8,8.8-8.8S264.8,392.4,264.8,397.2z"/>
			<path id="Shape_00000175286819730684336130000014271997373921073541_" class="st3" d="M256,379.6c-4.9,0-8.8-4-8.8-8.8v-8.8
				c0-4.9,4-8.8,8.8-8.8s8.8,4,8.8,8.8v8.8C264.8,375.6,260.9,379.6,256,379.6z"/>
			<path id="Shape_00000016059319354056733810000011544446683042926222_" class="st3" d="M117.8,218.5l5.1,40.6
				c0.4,3.5,2.8,6.4,6.2,7.4c19.8,5.8,88.3,27.4,121.4,55.2c3.2,2.7,7.8,2.7,11,0c33.1-27.8,101.6-49.4,121.4-55.2
				c3.3-1,5.8-3.9,6.2-7.4l5.1-40.6L117.8,218.5z"/>
		</g>
		<path id="Shape_00000066492547662411276200000016877487400676860800_" class="st1" d="M370.8,88.3c-0.3,4.8-0.3,9.6,0,14.4
			c-37.3,27.9-99.6,65.1-114.8,65.1c-15.2,0-77.4-37.2-114.8-65.1c0.3-4.8,0.3-9.6,0-14.4c0-28.6,3.2-47.7-2.9-59.9h0.1
			C155.6,11.1,178.7,1,203,0c17.7,17.7,35.3,26.5,53,26.5s35.3-8.8,53-26.5c24.3,1,47.4,11.1,64.6,28.3h0.1
			C367.6,40.6,370.8,59.7,370.8,88.3L370.8,88.3z"/>
		<path id="Shape_00000013162229019152486410000016668033507118956963_" class="st4" d="M256,114.8c44.1,0,61.8-26.5,61.8-26.5
			l-17.7-26.5h-88.3l-17.7,26.5C194.2,88.3,211.9,114.8,256,114.8z"/>
		<path id="Shape_00000066504552267303801390000015597649741197384866_" class="st2" d="M432.1,164.7c-2,25.7-19.2,47.8-43.7,56
			c-46.2,15.4-99,30.8-123.6,52c-0.9,0.8-1.7,1.5-2.5,2.3c-1.7,1.7-4,2.6-6.4,2.6c-2.4,0-4.7-1-6.4-2.6c-0.8-0.8-1.6-1.5-2.5-2.3
			c-24.5-21.2-77.4-36.6-123.6-52c-24.5-8.2-41.7-30.2-43.7-56l69.4-62.1c29.5,21.2,62.7,36.9,97.9,46.2c2.9,0.7,5.9,1.1,8.8,1.2
			c3-0.1,5.9-0.5,8.8-1.2c35.2-9.3,68.4-24.9,97.9-46.2L432.1,164.7z"/>
		<path id="Shape_00000090979678940065758950000011078924666916373889_" class="st3" d="M264.8,238.3v34.3c-0.9,0.8-1.7,1.5-2.5,2.3
			c-1.7,1.7-4,2.6-6.4,2.6c-2.4,0-4.7-1-6.4-2.6c-0.8-0.8-1.6-1.5-2.5-2.3v-34.3c0-4.9,4-8.8,8.8-8.8S264.8,233.5,264.8,238.3z"/>
		<path id="Shape_00000000196924078084264610000004266090240844608944_" class="st3" d="M264.8,148.8V203c0,4.9-4,8.8-8.8,8.8
			s-8.8-4-8.8-8.8v-54.2c2.9,0.7,5.9,1.1,8.8,1.2C259,150,261.9,149.5,264.8,148.8z"/>
		<path id="Shape_00000021818111849705325000000015426687736467759249_" class="st2" d="M146.5,52.7c1.2,0.2,2.3,0.3,3.5,0.3
			c12.7,0,23.7-9,26.1-21.6s-4.5-24.9-16.4-29.6s-25.4-0.2-32.1,10.6L146.5,52.7z"/>
		<path id="Shape_00000039813853980015978750000005322309798575366807_" class="st2" d="M384.4,12.4c-6.8-10.8-20.2-15.3-32.1-10.6
			s-18.7,17.1-16.4,29.6c2.4,12.5,13.3,21.6,26.1,21.6c1.2,0,2.4-0.1,3.5-0.3L384.4,12.4z"/>
		<path id="Shape_00000024681302391377129960000008648927018775293365_" class="st5" d="M298.2,61.8h-84.4
			c-18.4-18.8-9.2-42.3-2.5-54.1c12.2,11.4,28,18.1,44.7,18.8c16.7-0.7,32.5-7.4,44.7-18.8C307.4,19.5,316.6,43,298.2,61.8z"/>
		<path id="Shape_00000090999925610673200130000012571499139470580364_" class="st3" d="M150.1,88.3c0,4.8-0.2,9.6-0.8,14.4
			c-5.6,45.5-37.5,61.6-69.4,62.1c-18.8,0.4-37.4-4.7-53.4-14.7C0,132.4,0,114.8,0,88.3C44.1,0,123.6,8.8,123.6,8.8
			c6.4,5.2,11.5,11.9,14.7,19.5C146.8,47.1,150.8,67.7,150.1,88.3z"/>
		<path id="Shape_00000107562045727428305970000007562779454249876147_" class="st3" d="M512,88.3c0,26.5,0,44.1-26.5,61.8
			c-16,9.9-34.6,15-53.4,14.7c-31.9-0.4-63.8-16.6-69.4-62.1c-0.5-4.8-0.8-9.6-0.8-14.4c-0.8-20.6,3.3-41.1,11.7-59.9
			c3.3-7.6,8.3-14.3,14.7-19.5C388.4,8.8,467.9,0,512,88.3z"/>
		<path id="Shape_00000158010872911654674190000018227086073770050740_" class="st2" d="M123.6,8.8C79.4,97.1,0,88.3,0,88.3
			C44.1,0,123.6,8.8,123.6,8.8z"/>
		<path id="Shape_00000167368082079641594280000016535206447449055886_" class="st2" d="M512,88.3c0,0-79.4,8.8-123.6-79.4
			C388.4,8.8,467.9,0,512,88.3z"/>
	</g>
</g>
</svg>
