<?xml version="1.0" encoding="iso-8859-1"?>
<!-- Generator: Adobe Illustrator 19.0.0, SVG Export Plug-In . SVG Version: 6.00 Build 0)  -->
<svg version="1.1" id="Capa_1" xmlns="http://www.w3.org/2000/svg" xmlns:xlink="http://www.w3.org/1999/xlink" x="0px" y="0px"
	 viewBox="0 0 436.429 436.429" style="enable-background:new 0 0 436.429 436.429;" xml:space="preserve">
<polyline style="fill:#513304;" points="217.884,331.654 217.884,356.746 0,230.577 0,205.666 217.884,331.654 "/>
<polyline style="fill:#351F03;" points="217.907,331.654 217.907,356.746 435.799,230.577 435.799,205.666 217.907,331.654 "/>
<polygon style="fill:#7C5506;" points="0,205.666 217.884,331.654 436.429,205.666 218.214,79.683 "/>
<polyline style="fill:#6B4707;" points="0,205.666 217.884,331.654 436.429,205.666 "/>
<g>
	<polygon style="fill:#543607;" points="57.21,238.746 275.468,112.738 240.884,92.767 22.65,218.77 	"/>
	<polygon style="fill:#543607;" points="125.208,278.067 343.513,152.021 308.929,132.053 90.644,258.083 	"/>
	<polygon style="fill:#543607;" points="193.205,317.385 411.565,191.307 376.978,171.347 158.645,297.397 	"/>
</g>
<path style="fill:#BC8331;" d="M337.109,164.998c-0.878,0.508-0.158,1.753,1.595,2.761c1.76,1.016,3.931,1.438,4.832,0.945
	c0.902-0.492,0.181-1.737-1.599-2.769C340.161,164.915,337.991,164.49,337.109,164.998z"/>
<path style="fill:#9E6F1B;" d="M337.109,164.998c-0.878,0.508-0.158,1.753,1.595,2.761c1.76,1.016,3.931,1.438,4.832,0.945"/>
<path style="fill:#BC8331;" d="M340.708,176.498c-0.878,0.5-0.161,1.745,1.595,2.761c1.757,1.016,3.931,1.438,4.832,0.945
	c0.898-0.492,0.181-1.737-1.595-2.769C343.757,176.415,341.583,175.982,340.708,176.498z"/>
<path style="fill:#9E6F1B;" d="M340.708,176.498c-0.878,0.5-0.161,1.745,1.595,2.761c1.757,1.016,3.931,1.438,4.832,0.945"/>
<path style="fill:#BC8331;" d="M320.989,174.23c-0.878,0.508-0.158,1.745,1.595,2.761c1.76,1.016,3.931,1.438,4.832,0.945
	c0.902-0.492,0.181-1.737-1.599-2.769C324.037,174.147,321.867,173.722,320.989,174.23z"/>
<path style="fill:#9E6F1B;" d="M320.989,174.23c-0.878,0.508-0.158,1.745,1.595,2.761c1.76,1.016,3.931,1.438,4.832,0.945"/>
<path style="fill:#BC8331;" d="M324.584,185.73c-0.878,0.5-0.161,1.745,1.595,2.761c1.757,1.016,3.931,1.438,4.832,0.945
	c0.898-0.492,0.181-1.737-1.595-2.769C327.633,185.643,325.459,185.214,324.584,185.73z"/>
<path style="fill:#9E6F1B;" d="M324.584,185.73c-0.878,0.5-0.161,1.745,1.595,2.761c1.757,1.016,3.931,1.438,4.832,0.945"/>
<path style="fill:#BC8331;" d="M304.865,183.461c-0.878,0.508-0.158,1.745,1.595,2.761c1.76,1.016,3.931,1.438,4.832,0.945
	s0.181-1.737-1.599-2.769C307.913,183.375,305.747,182.953,304.865,183.461z"/>
<path style="fill:#9E6F1B;" d="M304.865,183.461c-0.878,0.508-0.158,1.745,1.595,2.761c1.76,1.016,3.931,1.438,4.832,0.945"/>
<path style="fill:#BC8331;" d="M308.46,194.962c-0.878,0.508-0.161,1.745,1.595,2.761c1.757,1.016,3.931,1.438,4.832,0.945
	c0.898-0.492,0.181-1.737-1.595-2.769C311.509,194.875,309.339,194.446,308.46,194.962z"/>
<path style="fill:#9E6F1B;" d="M308.46,194.962c-0.878,0.508-0.161,1.745,1.595,2.761c1.757,1.016,3.931,1.438,4.832,0.945"/>
<path style="fill:#BC8331;" d="M288.74,192.693c-0.878,0.508-0.158,1.745,1.595,2.761c1.76,1.016,3.931,1.438,4.832,0.945
	s0.181-1.737-1.599-2.769C291.793,192.607,289.623,192.185,288.74,192.693z"/>
<path style="fill:#9E6F1B;" d="M288.74,192.693c-0.878,0.508-0.158,1.745,1.595,2.761c1.76,1.016,3.931,1.438,4.832,0.945"/>
<path style="fill:#BC8331;" d="M292.336,204.19c-0.878,0.5-0.161,1.745,1.595,2.761c1.757,1.016,3.931,1.438,4.832,0.945
	c0.898-0.492,0.181-1.737-1.595-2.769C295.389,204.107,293.215,203.678,292.336,204.19z"/>
<path style="fill:#9E6F1B;" d="M292.336,204.19c-0.878,0.5-0.161,1.745,1.595,2.761c1.757,1.016,3.931,1.438,4.832,0.945"/>
<path style="fill:#BC8331;" d="M272.616,201.921c-0.878,0.508-0.158,1.753,1.595,2.761c1.76,1.016,3.931,1.438,4.832,0.945
	s0.181-1.737-1.599-2.769C275.669,201.838,273.499,201.413,272.616,201.921z"/>
<path style="fill:#9E6F1B;" d="M272.616,201.921c-0.878,0.508-0.158,1.753,1.595,2.761c1.76,1.016,3.931,1.438,4.832,0.945"/>
<path style="fill:#BC8331;" d="M276.216,213.421c-0.878,0.5-0.161,1.745,1.595,2.761c1.757,1.016,3.931,1.438,4.832,0.945
	c0.898-0.492,0.181-1.737-1.595-2.769C279.264,213.339,277.09,212.905,276.216,213.421z"/>
<path style="fill:#9E6F1B;" d="M276.216,213.421c-0.878,0.5-0.161,1.745,1.595,2.761c1.757,1.016,3.931,1.438,4.832,0.945"/>
<path style="fill:#BC8331;" d="M256.496,211.153c-0.878,0.508-0.158,1.745,1.595,2.761c1.76,1.016,3.931,1.438,4.832,0.945
	c0.902-0.492,0.181-1.737-1.599-2.769C259.545,211.07,257.375,210.645,256.496,211.153z"/>
<path style="fill:#9E6F1B;" d="M256.496,211.153c-0.878,0.508-0.158,1.745,1.595,2.761c1.76,1.016,3.931,1.438,4.832,0.945"/>
<path style="fill:#BC8331;" d="M260.092,222.653c-0.878,0.5-0.161,1.745,1.595,2.761c1.757,1.016,3.931,1.438,4.832,0.945
	c0.898-0.492,0.181-1.737-1.595-2.769C263.14,222.566,260.966,222.137,260.092,222.653z"/>
<path style="fill:#9E6F1B;" d="M260.092,222.653c-0.878,0.5-0.161,1.745,1.595,2.761c1.757,1.016,3.931,1.438,4.832,0.945"/>
<path style="fill:#BC8331;" d="M240.372,220.384c-0.878,0.508-0.158,1.745,1.595,2.761c1.76,1.016,3.931,1.438,4.832,0.945
	c0.902-0.492,0.181-1.737-1.599-2.769C243.421,220.298,241.254,219.876,240.372,220.384z"/>
<path style="fill:#9E6F1B;" d="M240.372,220.384c-0.878,0.508-0.158,1.745,1.595,2.761c1.76,1.016,3.931,1.438,4.832,0.945"/>
<path style="fill:#BC8331;" d="M243.968,231.885c-0.878,0.508-0.161,1.745,1.595,2.761c1.757,1.016,3.931,1.438,4.832,0.945
	c0.898-0.492,0.181-1.737-1.595-2.769C247.016,231.798,244.846,231.369,243.968,231.885z"/>
<path style="fill:#9E6F1B;" d="M243.968,231.885c-0.878,0.508-0.161,1.745,1.595,2.761c1.757,1.016,3.931,1.438,4.832,0.945"/>
<path style="fill:#BC8331;" d="M224.248,229.616c-0.878,0.508-0.158,1.745,1.595,2.761c1.76,1.016,3.931,1.438,4.832,0.945
	c0.902-0.492,0.181-1.737-1.599-2.769C227.3,229.53,225.13,229.108,224.248,229.616z"/>
<path style="fill:#9E6F1B;" d="M224.248,229.616c-0.878,0.508-0.158,1.745,1.595,2.761c1.76,1.016,3.931,1.438,4.832,0.945"/>
<path style="fill:#BC8331;" d="M227.844,241.113c-0.878,0.5-0.161,1.745,1.595,2.761c1.757,1.016,3.931,1.438,4.832,0.945
	c0.898-0.492,0.181-1.737-1.595-2.769C230.896,241.03,228.722,240.601,227.844,241.113z"/>
<path style="fill:#9E6F1B;" d="M227.844,241.113c-0.878,0.5-0.161,1.745,1.595,2.761c1.757,1.016,3.931,1.438,4.832,0.945"/>
<path style="fill:#BC8331;" d="M208.124,238.844c-0.878,0.508-0.158,1.753,1.595,2.761c1.76,1.016,3.931,1.438,4.833,0.945
	c0.902-0.492,0.181-1.737-1.599-2.769C211.176,238.761,209.006,238.336,208.124,238.844z"/>
<path style="fill:#9E6F1B;" d="M208.124,238.844c-0.878,0.508-0.158,1.753,1.595,2.761c1.76,1.016,3.931,1.438,4.833,0.945"/>
<path style="fill:#BC8331;" d="M211.724,250.344c-0.878,0.5-0.161,1.745,1.595,2.761c1.757,1.016,3.931,1.438,4.832,0.945
	c0.898-0.492,0.181-1.737-1.595-2.769C214.772,250.262,212.598,249.828,211.724,250.344z"/>
<path style="fill:#9E6F1B;" d="M211.724,250.344c-0.878,0.5-0.161,1.745,1.595,2.761c1.757,1.016,3.931,1.438,4.832,0.945"/>
<path style="fill:#BC8331;" d="M192.004,248.076c-0.878,0.508-0.158,1.745,1.595,2.761c1.76,1.016,3.931,1.438,4.833,0.945
	c0.902-0.492,0.181-1.737-1.599-2.769C195.052,247.993,192.882,247.568,192.004,248.076z"/>
<path style="fill:#9E6F1B;" d="M192.004,248.076c-0.878,0.508-0.158,1.745,1.595,2.761c1.76,1.016,3.931,1.438,4.833,0.945"/>
<path style="fill:#BC8331;" d="M195.6,259.576c-0.878,0.5-0.161,1.745,1.595,2.761c1.757,1.016,3.931,1.438,4.833,0.945
	c0.898-0.492,0.181-1.737-1.595-2.769C198.648,259.489,196.474,259.06,195.6,259.576z"/>
<path style="fill:#9E6F1B;" d="M195.6,259.576c-0.878,0.5-0.161,1.745,1.595,2.761c1.757,1.016,3.931,1.438,4.833,0.945"/>
<path style="fill:#BC8331;" d="M175.88,257.308c-0.878,0.508-0.158,1.745,1.595,2.761c1.76,1.016,3.931,1.438,4.833,0.945
	c0.902-0.492,0.181-1.737-1.599-2.769C178.928,257.221,176.762,256.799,175.88,257.308z"/>
<path style="fill:#9E6F1B;" d="M175.88,257.308c-0.878,0.508-0.158,1.745,1.595,2.761c1.76,1.016,3.931,1.438,4.833,0.945"/>
<path style="fill:#BC8331;" d="M179.476,268.808c-0.878,0.508-0.161,1.745,1.595,2.761c1.757,1.016,3.931,1.438,4.833,0.945
	c0.898-0.492,0.181-1.737-1.595-2.769C182.524,268.721,180.354,268.292,179.476,268.808z"/>
<path style="fill:#9E6F1B;" d="M179.476,268.808c-0.878,0.508-0.161,1.745,1.595,2.761c1.757,1.016,3.931,1.438,4.833,0.945"/>
<path style="fill:#BC8331;" d="M159.756,266.539c-0.878,0.508-0.158,1.745,1.595,2.761c1.76,1.016,3.931,1.438,4.833,0.945
	c0.902-0.492,0.181-1.737-1.599-2.769C162.808,266.453,160.638,266.031,159.756,266.539z"/>
<path style="fill:#9E6F1B;" d="M159.756,266.539c-0.878,0.508-0.158,1.745,1.595,2.761c1.76,1.016,3.931,1.438,4.833,0.945"/>
<path style="fill:#BC8331;" d="M163.352,278.036c-0.878,0.5-0.161,1.745,1.595,2.761s3.931,1.438,4.833,0.945
	c0.898-0.492,0.181-1.737-1.595-2.769C166.404,277.953,164.23,277.524,163.352,278.036z"/>
<path style="fill:#9E6F1B;" d="M163.352,278.036c-0.878,0.5-0.161,1.745,1.595,2.761s3.931,1.438,4.833,0.945"/>
<path style="fill:#BC8331;" d="M398.545,210.499c-0.878,0.508-0.158,1.753,1.599,2.769c1.757,1.016,3.931,1.438,4.832,0.945
	c0.898-0.5,0.177-1.745-1.599-2.769C401.597,210.416,399.427,209.991,398.545,210.499z"/>
<path style="fill:#9E6F1B;" d="M398.545,210.499c-0.878,0.508-0.158,1.753,1.599,2.769c1.757,1.016,3.931,1.438,4.832,0.945"/>
<path style="fill:#BC8331;" d="M382.421,219.731c-0.878,0.508-0.158,1.753,1.599,2.769c1.757,1.016,3.931,1.438,4.832,0.945
	c0.898-0.5,0.177-1.745-1.599-2.769C385.477,219.644,383.303,219.223,382.421,219.731z"/>
<path style="fill:#9E6F1B;" d="M382.421,219.731c-0.878,0.508-0.158,1.753,1.599,2.769c1.757,1.016,3.931,1.438,4.832,0.945"/>
<path style="fill:#BC8331;" d="M366.301,228.962c-0.878,0.508-0.158,1.753,1.599,2.769c1.757,1.016,3.931,1.438,4.832,0.945
	c0.898-0.5,0.177-1.745-1.599-2.769C369.353,228.876,367.179,228.454,366.301,228.962z"/>
<path style="fill:#9E6F1B;" d="M366.301,228.962c-0.878,0.508-0.158,1.753,1.599,2.769c1.757,1.016,3.931,1.438,4.832,0.945"/>
<path style="fill:#BC8331;" d="M350.176,238.19c-0.878,0.508-0.158,1.753,1.599,2.769c1.757,1.016,3.931,1.438,4.832,0.945
	c0.898-0.492,0.177-1.745-1.599-2.769C353.229,238.108,351.055,237.682,350.176,238.19z"/>
<path style="fill:#9E6F1B;" d="M350.176,238.19c-0.878,0.508-0.158,1.753,1.599,2.769c1.757,1.016,3.931,1.438,4.832,0.945"/>
<path style="fill:#BC8331;" d="M334.052,247.422c-0.878,0.508-0.158,1.753,1.599,2.769c1.757,1.016,3.931,1.438,4.832,0.945
	c0.898-0.5,0.177-1.745-1.599-2.769C337.109,247.339,334.935,246.914,334.052,247.422z"/>
<path style="fill:#9E6F1B;" d="M334.052,247.422c-0.878,0.508-0.158,1.753,1.599,2.769c1.757,1.016,3.931,1.438,4.832,0.945"/>
<path style="fill:#BC8331;" d="M317.928,256.654c-0.878,0.508-0.158,1.753,1.599,2.769c1.757,1.016,3.931,1.438,4.832,0.945
	c0.898-0.5,0.177-1.745-1.599-2.769C320.985,256.567,318.811,256.146,317.928,256.654z"/>
<path style="fill:#9E6F1B;" d="M317.928,256.654c-0.878,0.508-0.158,1.753,1.599,2.769c1.757,1.016,3.931,1.438,4.832,0.945"/>
<path style="fill:#BC8331;" d="M301.808,265.886c-0.878,0.508-0.158,1.753,1.599,2.769c1.757,1.016,3.931,1.438,4.832,0.945
	c0.898-0.5,0.177-1.745-1.599-2.769C304.861,265.799,302.687,265.377,301.808,265.886z"/>
<path style="fill:#9E6F1B;" d="M301.808,265.886c-0.878,0.508-0.158,1.753,1.599,2.769c1.757,1.016,3.931,1.438,4.832,0.945"/>
<path style="fill:#BC8331;" d="M285.684,275.113c-0.878,0.508-0.158,1.753,1.599,2.769c1.757,1.016,3.931,1.438,4.832,0.945
	c0.898-0.492,0.177-1.745-1.599-2.769C288.736,275.031,286.562,274.605,285.684,275.113z"/>
<path style="fill:#9E6F1B;" d="M285.684,275.113c-0.878,0.508-0.158,1.753,1.599,2.769c1.757,1.016,3.931,1.438,4.832,0.945"/>
<path style="fill:#BC8331;" d="M269.56,284.345c-0.878,0.508-0.158,1.753,1.599,2.769c1.757,1.016,3.931,1.438,4.832,0.945
	c0.898-0.5,0.177-1.745-1.599-2.769C272.612,284.262,270.442,283.837,269.56,284.345z"/>
<path style="fill:#9E6F1B;" d="M269.56,284.345c-0.878,0.508-0.158,1.753,1.599,2.769c1.757,1.016,3.931,1.438,4.832,0.945"/>
<path style="fill:#BC8331;" d="M253.436,293.577c-0.878,0.508-0.158,1.753,1.599,2.769c1.757,1.016,3.931,1.438,4.832,0.945
	c0.898-0.5,0.177-1.745-1.599-2.769C256.492,293.49,254.318,293.069,253.436,293.577z"/>
<path style="fill:#9E6F1B;" d="M253.436,293.577c-0.878,0.508-0.158,1.753,1.599,2.769c1.757,1.016,3.931,1.438,4.832,0.945"/>
<path style="fill:#BC8331;" d="M237.316,302.809c-0.878,0.508-0.158,1.753,1.599,2.769c1.757,1.016,3.931,1.438,4.832,0.945
	c0.898-0.5,0.177-1.745-1.599-2.769C240.368,302.722,238.194,302.301,237.316,302.809z"/>
<path style="fill:#9E6F1B;" d="M237.316,302.809c-0.878,0.508-0.158,1.753,1.599,2.769c1.757,1.016,3.931,1.438,4.832,0.945"/>
<path style="fill:#BC8331;" d="M221.192,312.036c-0.878,0.508-0.158,1.753,1.599,2.769c1.757,1.016,3.931,1.438,4.832,0.945
	c0.898-0.492,0.177-1.745-1.599-2.769C224.244,311.954,222.07,311.528,221.192,312.036z"/>
<path style="fill:#9E6F1B;" d="M221.192,312.036c-0.878,0.508-0.158,1.753,1.599,2.769c1.757,1.016,3.931,1.438,4.832,0.945"/>
<path style="fill:#BC8331;" d="M202.189,96.185c-0.878,0.508-0.158,1.753,1.595,2.769c1.76,1.008,3.931,1.438,4.832,0.937
	c0.902-0.492,0.181-1.737-1.599-2.769C205.237,96.098,203.067,95.677,202.189,96.185z"/>
<path style="fill:#9E6F1B;" d="M202.189,96.185c-0.878,0.508-0.158,1.753,1.595,2.769c1.76,1.008,3.931,1.438,4.832,0.937"/>
<path style="fill:#BC8331;" d="M186.065,105.413c-0.878,0.508-0.158,1.753,1.595,2.769c1.76,1.008,3.931,1.438,4.832,0.937
	c0.902-0.492,0.181-1.737-1.599-2.761C189.113,105.33,186.947,104.905,186.065,105.413z"/>
<path style="fill:#9E6F1B;" d="M186.065,105.413c-0.878,0.508-0.158,1.753,1.595,2.769c1.76,1.008,3.931,1.438,4.832,0.937"/>
<path style="fill:#BC8331;" d="M169.941,114.645c-0.878,0.508-0.158,1.753,1.595,2.769c1.76,1.008,3.931,1.438,4.832,0.937
	c0.902-0.492,0.181-1.737-1.599-2.769C172.993,114.562,170.823,114.137,169.941,114.645z"/>
<path style="fill:#9E6F1B;" d="M169.941,114.645c-0.878,0.508-0.158,1.753,1.595,2.769c1.76,1.008,3.931,1.438,4.832,0.937"/>
<path style="fill:#BC8331;" d="M153.817,123.876c-0.878,0.508-0.158,1.753,1.595,2.769c1.76,1.008,3.931,1.438,4.832,0.937
	c0.902-0.492,0.181-1.737-1.599-2.769C156.869,123.79,154.699,123.368,153.817,123.876z"/>
<path style="fill:#9E6F1B;" d="M153.817,123.876c-0.878,0.508-0.158,1.753,1.595,2.769c1.76,1.008,3.931,1.438,4.832,0.937"/>
<path style="fill:#BC8331;" d="M137.696,133.108c-0.878,0.508-0.158,1.753,1.595,2.769c1.76,1.008,3.931,1.438,4.832,0.937
	c0.902-0.492,0.181-1.737-1.599-2.769C140.745,133.022,138.575,132.6,137.696,133.108z"/>
<path style="fill:#9E6F1B;" d="M137.696,133.108c-0.878,0.508-0.158,1.753,1.595,2.769c1.76,1.008,3.931,1.438,4.832,0.937"/>
<path style="fill:#BC8331;" d="M121.572,142.336c-0.878,0.508-0.158,1.753,1.595,2.769c1.76,1.008,3.931,1.438,4.833,0.937
	c0.902-0.492,0.181-1.737-1.599-2.761C124.621,142.253,122.455,141.828,121.572,142.336z"/>
<path style="fill:#9E6F1B;" d="M121.572,142.336c-0.878,0.508-0.158,1.753,1.595,2.769c1.76,1.008,3.931,1.438,4.833,0.937"/>
<path style="fill:#BC8331;" d="M105.448,151.568c-0.878,0.508-0.158,1.753,1.595,2.769c1.76,1.008,3.931,1.438,4.832,0.937
	c0.902-0.492,0.181-1.737-1.599-2.769C108.501,151.485,106.331,151.06,105.448,151.568z"/>
<path style="fill:#9E6F1B;" d="M105.448,151.568c-0.878,0.508-0.158,1.753,1.595,2.769c1.76,1.008,3.931,1.438,4.832,0.937"/>
<path style="fill:#BC8331;" d="M89.324,160.799c-0.878,0.508-0.158,1.753,1.595,2.769c1.76,1.008,3.931,1.438,4.832,0.937
	c0.902-0.492,0.181-1.737-1.599-2.769C92.377,160.713,90.207,160.291,89.324,160.799z"/>
<path style="fill:#9E6F1B;" d="M89.324,160.799c-0.878,0.508-0.158,1.753,1.595,2.769c1.76,1.008,3.931,1.438,4.832,0.937"/>
<path style="fill:#BC8331;" d="M73.204,170.031c-0.878,0.508-0.158,1.753,1.595,2.769c1.76,1.008,3.931,1.438,4.832,0.937
	c0.902-0.492,0.181-1.737-1.599-2.769C76.253,169.945,74.082,169.523,73.204,170.031z"/>
<path style="fill:#9E6F1B;" d="M73.204,170.031c-0.878,0.508-0.158,1.753,1.595,2.769c1.76,1.008,3.931,1.438,4.832,0.937"/>
<path style="fill:#BC8331;" d="M57.08,179.259c-0.878,0.508-0.158,1.753,1.595,2.769c1.76,1.008,3.931,1.438,4.832,0.937
	c0.902-0.492,0.181-1.737-1.599-2.761C60.128,179.176,57.962,178.751,57.08,179.259z"/>
<path style="fill:#9E6F1B;" d="M57.08,179.259c-0.878,0.508-0.158,1.753,1.595,2.769c1.76,1.008,3.931,1.438,4.832,0.937"/>
<path style="fill:#BC8331;" d="M40.956,188.491c-0.878,0.508-0.158,1.753,1.595,2.769c1.76,1.008,3.931,1.438,4.832,0.937
	c0.902-0.492,0.181-1.737-1.599-2.769C44.008,188.408,41.838,187.983,40.956,188.491z"/>
<path style="fill:#9E6F1B;" d="M40.956,188.491c-0.878,0.508-0.158,1.753,1.595,2.769c1.76,1.008,3.931,1.438,4.832,0.937"/>
<path style="fill:#BC8331;" d="M24.832,197.723c-0.878,0.508-0.158,1.753,1.595,2.769c1.76,1.008,3.931,1.438,4.832,0.937
	c0.902-0.492,0.181-1.737-1.599-2.769C27.884,197.636,25.714,197.215,24.832,197.723z"/>
<path style="fill:#9E6F1B;" d="M24.832,197.723c-0.878,0.508-0.158,1.753,1.595,2.769c1.76,1.008,3.931,1.438,4.832,0.937"/>
<path style="fill:#BC8331;" d="M267.552,126.113c-0.878,0.508-0.161,1.753,1.591,2.769c1.76,1.016,3.935,1.438,4.832,0.945
	c0.902-0.492,0.185-1.745-1.595-2.769C270.604,126.031,268.43,125.605,267.552,126.113z"/>
<path style="fill:#9E6F1B;" d="M267.552,126.113c-0.878,0.508-0.161,1.753,1.591,2.769c1.76,1.016,3.935,1.438,4.832,0.945"/>
<path style="fill:#BC8331;" d="M271.143,137.614c-0.878,0.508-0.158,1.753,1.599,2.769c1.753,1.008,3.931,1.438,4.832,0.945
	c0.898-0.5,0.177-1.745-1.599-2.769C274.2,137.531,272.022,137.106,271.143,137.614z"/>
<path style="fill:#9E6F1B;" d="M271.143,137.614c-0.878,0.508-0.158,1.753,1.599,2.769c1.753,1.008,3.931,1.438,4.832,0.945"/>
<path style="fill:#BC8331;" d="M251.431,135.345c-0.878,0.508-0.161,1.753,1.591,2.769c1.76,1.016,3.935,1.438,4.833,0.945
	c0.902-0.5,0.185-1.745-1.595-2.769C254.48,135.263,252.306,134.837,251.431,135.345z"/>
<path style="fill:#9E6F1B;" d="M251.431,135.345c-0.878,0.508-0.161,1.753,1.591,2.769c1.76,1.016,3.935,1.438,4.833,0.945"/>
<path style="fill:#BC8331;" d="M255.023,146.846c-0.878,0.508-0.158,1.753,1.599,2.769c1.753,1.008,3.931,1.438,4.832,0.937
	c0.898-0.492,0.177-1.737-1.599-2.761C258.076,146.759,255.898,146.337,255.023,146.846z"/>
<path style="fill:#9E6F1B;" d="M255.023,146.846c-0.878,0.508-0.158,1.753,1.599,2.769c1.753,1.008,3.931,1.438,4.832,0.937"/>
<path style="fill:#BC8331;" d="M235.307,144.577c-0.878,0.508-0.161,1.753,1.591,2.769c1.76,1.016,3.935,1.438,4.832,0.945
	c0.902-0.5,0.185-1.745-1.595-2.769C238.356,144.49,236.182,144.069,235.307,144.577z"/>
<path style="fill:#9E6F1B;" d="M235.307,144.577c-0.878,0.508-0.161,1.753,1.591,2.769c1.76,1.016,3.935,1.438,4.832,0.945"/>
<path style="fill:#BC8331;" d="M238.899,156.077c-0.878,0.508-0.158,1.753,1.599,2.769c1.753,1.016,3.931,1.438,4.832,0.937
	c0.898-0.492,0.177-1.737-1.599-2.761C241.952,155.991,239.777,155.569,238.899,156.077z"/>
<path style="fill:#9E6F1B;" d="M238.899,156.077c-0.878,0.508-0.158,1.753,1.599,2.769c1.753,1.016,3.931,1.438,4.832,0.937"/>
<path style="fill:#BC8331;" d="M219.183,153.805c-0.878,0.508-0.161,1.753,1.591,2.769c1.76,1.016,3.935,1.438,4.832,0.945
	c0.902-0.5,0.185-1.745-1.595-2.769C222.236,153.722,220.062,153.301,219.183,153.805z"/>
<path style="fill:#9E6F1B;" d="M219.183,153.805c-0.878,0.508-0.161,1.753,1.591,2.769c1.76,1.016,3.935,1.438,4.832,0.945"/>
<path style="fill:#BC8331;" d="M222.775,165.305c-0.878,0.508-0.158,1.753,1.599,2.769c1.753,1.008,3.931,1.438,4.832,0.937
	c0.898-0.492,0.177-1.737-1.599-2.761C225.831,165.222,223.653,164.801,222.775,165.305z"/>
<path style="fill:#9E6F1B;" d="M222.775,165.305c-0.878,0.508-0.158,1.753,1.599,2.769c1.753,1.008,3.931,1.438,4.832,0.937"/>
<path style="fill:#BC8331;" d="M203.059,163.037c-0.878,0.508-0.161,1.753,1.591,2.769c1.76,1.016,3.935,1.438,4.832,0.945
	c0.902-0.492,0.185-1.745-1.595-2.769C206.111,162.954,203.937,162.528,203.059,163.037z"/>
<path style="fill:#9E6F1B;" d="M203.059,163.037c-0.878,0.508-0.161,1.753,1.591,2.769c1.76,1.016,3.935,1.438,4.832,0.945"/>
<path style="fill:#BC8331;" d="M206.651,174.537c-0.878,0.508-0.158,1.753,1.599,2.769c1.753,1.008,3.931,1.438,4.833,0.945
	c0.898-0.5,0.177-1.745-1.599-2.769C209.707,174.454,207.529,174.029,206.651,174.537z"/>
<path style="fill:#9E6F1B;" d="M206.651,174.537c-0.878,0.508-0.158,1.753,1.599,2.769c1.753,1.008,3.931,1.438,4.833,0.945"/>
<path style="fill:#BC8331;" d="M186.939,172.268c-0.878,0.508-0.161,1.753,1.591,2.769c1.76,1.016,3.935,1.438,4.832,0.945
	c0.902-0.5,0.185-1.745-1.595-2.769C189.987,172.182,187.813,171.76,186.939,172.268z"/>
<path style="fill:#9E6F1B;" d="M186.939,172.268c-0.878,0.508-0.161,1.753,1.591,2.769c1.76,1.016,3.935,1.438,4.832,0.945"/>
<path style="fill:#BC8331;" d="M190.531,183.769c-0.878,0.508-0.158,1.753,1.599,2.769c1.753,1.008,3.931,1.438,4.833,0.937
	c0.898-0.492,0.177-1.737-1.599-2.761C193.583,183.682,191.405,183.261,190.531,183.769z"/>
<path style="fill:#9E6F1B;" d="M190.531,183.769c-0.878,0.508-0.158,1.753,1.599,2.769c1.753,1.008,3.931,1.438,4.833,0.937"/>
<path style="fill:#BC8331;" d="M170.815,181.5c-0.878,0.508-0.161,1.753,1.591,2.769c1.76,1.016,3.935,1.438,4.832,0.945
	c0.902-0.5,0.185-1.745-1.595-2.769C173.863,181.413,171.693,180.992,170.815,181.5z"/>
<path style="fill:#9E6F1B;" d="M170.815,181.5c-0.878,0.508-0.161,1.753,1.591,2.769c1.76,1.016,3.935,1.438,4.832,0.945"/>
<path style="fill:#BC8331;" d="M174.407,193c-0.878,0.508-0.158,1.753,1.599,2.769c1.753,1.016,3.931,1.438,4.833,0.937
	c0.898-0.492,0.177-1.737-1.599-2.761C177.459,192.914,175.285,192.492,174.407,193z"/>
<path style="fill:#9E6F1B;" d="M174.407,193c-0.878,0.508-0.158,1.753,1.599,2.769c1.753,1.016,3.931,1.438,4.833,0.937"/>
<path style="fill:#BC8331;" d="M154.691,190.728c-0.878,0.508-0.161,1.753,1.591,2.769c1.76,1.016,3.935,1.438,4.832,0.945
	c0.902-0.5,0.185-1.745-1.595-2.769C157.743,190.645,155.569,190.224,154.691,190.728z"/>
<path style="fill:#9E6F1B;" d="M154.691,190.728c-0.878,0.508-0.161,1.753,1.591,2.769c1.76,1.016,3.935,1.438,4.832,0.945"/>
<path style="fill:#BC8331;" d="M158.283,202.228c-0.878,0.508-0.158,1.753,1.599,2.769c1.753,1.008,3.931,1.438,4.832,0.937
	c0.898-0.492,0.177-1.737-1.599-2.761C161.339,202.145,159.161,201.72,158.283,202.228z"/>
<path style="fill:#9E6F1B;" d="M158.283,202.228c-0.878,0.508-0.158,1.753,1.599,2.769c1.753,1.008,3.931,1.438,4.832,0.937"/>
<path style="fill:#BC8331;" d="M138.567,199.96c-0.878,0.508-0.161,1.753,1.591,2.769c1.76,1.016,3.935,1.438,4.832,0.945
	c0.902-0.492,0.185-1.745-1.595-2.769C141.619,199.877,139.445,199.452,138.567,199.96z"/>
<path style="fill:#9E6F1B;" d="M138.567,199.96c-0.878,0.508-0.161,1.753,1.591,2.769c1.76,1.016,3.935,1.438,4.832,0.945"/>
<path style="fill:#BC8331;" d="M142.159,211.46c-0.878,0.508-0.158,1.753,1.599,2.769c1.753,1.008,3.931,1.438,4.832,0.945
	c0.898-0.5,0.177-1.745-1.599-2.769C145.215,211.377,143.037,210.952,142.159,211.46z"/>
<path style="fill:#9E6F1B;" d="M142.159,211.46c-0.878,0.508-0.158,1.753,1.599,2.769c1.753,1.008,3.931,1.438,4.832,0.945"/>
<path style="fill:#BC8331;" d="M122.447,209.191c-0.878,0.508-0.161,1.753,1.591,2.769c1.76,1.016,3.935,1.438,4.832,0.945
	c0.902-0.5,0.185-1.745-1.595-2.769C125.495,209.109,123.321,208.683,122.447,209.191z"/>
<path style="fill:#9E6F1B;" d="M122.447,209.191c-0.878,0.508-0.161,1.753,1.591,2.769c1.76,1.016,3.935,1.438,4.832,0.945"/>
<path style="fill:#BC8331;" d="M126.039,220.692c-0.878,0.508-0.158,1.753,1.599,2.769c1.753,1.008,3.931,1.438,4.832,0.937
	c0.898-0.492,0.177-1.737-1.599-2.761C129.091,220.605,126.913,220.184,126.039,220.692z"/>
<path style="fill:#9E6F1B;" d="M126.039,220.692c-0.878,0.508-0.158,1.753,1.599,2.769c1.753,1.008,3.931,1.438,4.832,0.937"/>
<path style="fill:#BC8331;" d="M106.323,218.423c-0.878,0.508-0.161,1.753,1.591,2.769c1.76,1.016,3.935,1.438,4.833,0.945
	c0.902-0.5,0.185-1.745-1.595-2.769C109.371,218.336,107.197,217.915,106.323,218.423z"/>
<path style="fill:#9E6F1B;" d="M106.323,218.423c-0.878,0.508-0.161,1.753,1.591,2.769c1.76,1.016,3.935,1.438,4.833,0.945"/>
<path style="fill:#BC8331;" d="M109.915,229.923c-0.878,0.508-0.158,1.753,1.599,2.769c1.753,1.016,3.931,1.438,4.832,0.937
	c0.898-0.492,0.177-1.737-1.599-2.761C112.967,229.837,110.793,229.415,109.915,229.923z"/>
<path style="fill:#9E6F1B;" d="M109.915,229.923c-0.878,0.508-0.158,1.753,1.599,2.769c1.753,1.016,3.931,1.438,4.832,0.937"/>
<path style="fill:#BC8331;" d="M90.199,227.651c-0.878,0.508-0.161,1.753,1.591,2.769c1.76,1.016,3.935,1.438,4.832,0.945
	c0.902-0.5,0.185-1.745-1.595-2.769C93.251,227.568,91.077,227.147,90.199,227.651z"/>
<path style="fill:#9E6F1B;" d="M90.199,227.651c-0.878,0.508-0.161,1.753,1.591,2.769c1.76,1.016,3.935,1.438,4.832,0.945"/>
<path style="fill:#BC8331;" d="M93.791,239.151c-0.878,0.508-0.158,1.753,1.599,2.769c1.753,1.008,3.931,1.438,4.832,0.937
	c0.898-0.492,0.177-1.737-1.599-2.761C96.847,239.069,94.669,238.647,93.791,239.151z"/>
<path style="fill:#9E6F1B;" d="M93.791,239.151c-0.878,0.508-0.158,1.753,1.599,2.769c1.753,1.008,3.931,1.438,4.832,0.937"/>
<g>
</g>
<g>
</g>
<g>
</g>
<g>
</g>
<g>
</g>
<g>
</g>
<g>
</g>
<g>
</g>
<g>
</g>
<g>
</g>
<g>
</g>
<g>
</g>
<g>
</g>
<g>
</g>
<g>
</g>
</svg>
