<?xml version="1.0" encoding="iso-8859-1"?>
<!-- Generator: Adobe Illustrator 19.0.0, SVG Export Plug-In . SVG Version: 6.00 Build 0)  -->
<svg version="1.1" id="Capa_1" xmlns="http://www.w3.org/2000/svg" xmlns:xlink="http://www.w3.org/1999/xlink" x="0px" y="0px"
	 viewBox="0 0 414 414" style="enable-background:new 0 0 414 414;" xml:space="preserve">
<circle style="fill:#F0C48A;" cx="207" cy="207" r="207"/>
<circle style="fill:#7BABF1;" cx="207" cy="207" r="173.86"/>
<ellipse style="fill:#A4CFF2;" cx="204.953" cy="207.002" rx="135.329" ry="135.329"/>
<ellipse style="fill:#D3E6F8;" cx="206.312" cy="208.509" rx="103.479" ry="103.479"/>
<ellipse style="fill:#FFFFFF;" cx="206.325" cy="206.48" rx="72.341" ry="72.341"/>
<ellipse style="fill:#FD919E;" cx="207.683" cy="206.463" rx="38.031" ry="38.031"/>
<g>
	<path style="fill:#4C4372;" d="M207,27.142c-99.174,0-179.858,80.685-179.858,179.858S107.826,386.858,207,386.858
		S386.858,306.174,386.858,207S306.174,27.142,207,27.142z M207,374.858c-92.558,0-167.858-75.301-167.858-167.858
		S114.442,39.142,207,39.142S374.858,114.442,374.858,207S299.558,374.858,207,374.858z"/>
	<circle style="fill:#4C4372;" cx="207" cy="207" r="13.235"/>
	<path style="fill:#4C4372;" d="M204.659,65.587c-31.447,0-61.215,10.104-86.088,29.219C94.49,113.313,76.719,139.52,68.533,168.6
		c-0.898,3.189,0.96,6.504,4.149,7.401c3.192,0.898,6.503-0.961,7.401-4.149c15.625-55.502,66.852-94.265,124.575-94.265
		c71.358,0,129.413,58.055,129.413,129.413s-58.054,129.413-129.413,129.413c-58.364,0-109.741-39.306-124.938-95.584
		c-0.864-3.198-4.158-5.086-7.357-4.229c-3.199,0.864-5.092,4.158-4.228,7.357c16.608,61.502,72.749,104.455,136.523,104.455
		c77.975,0,141.413-63.438,141.413-141.413S282.634,65.587,204.659,65.587z"/>
	<path style="fill:#4C4372;" d="M207,99.029c-60.524,0-109.764,49.24-109.764,109.765c0,48.957,32.88,92.406,79.959,105.66
		c3.193,0.896,6.504-0.961,7.401-4.149c0.898-3.189-0.96-6.504-4.149-7.401c-41.928-11.804-71.211-50.503-71.211-94.109
		c0-53.907,43.857-97.765,97.764-97.765s97.764,43.857,97.764,97.765c0,44.091-29.693,82.903-72.208,94.384
		c-3.199,0.864-5.092,4.158-4.228,7.357c0.723,2.675,3.144,4.438,5.789,4.438c0.518,0,1.044-0.068,1.568-0.209
		c47.738-12.893,81.079-56.469,81.079-105.97C316.764,148.27,267.524,99.029,207,99.029z"/>
	<path style="fill:#4C4372;" d="M228.199,130.602c-3.194-0.9-6.504,0.961-7.401,4.149c-0.898,3.189,0.959,6.504,4.149,7.401
		c28.335,7.978,48.125,34.131,48.125,63.602c0,36.433-29.64,66.072-66.072,66.072s-66.072-29.64-66.072-66.072
		c0-29.798,20.067-56.028,48.799-63.788c3.199-0.863,5.092-4.157,4.228-7.356s-4.155-5.091-7.357-4.229
		c-33.955,9.171-57.67,40.165-57.67,75.373c0,43.049,35.023,78.072,78.072,78.072s78.072-35.023,78.072-78.072
		C285.072,170.933,261.685,140.029,228.199,130.602z"/>
	<path style="fill:#4C4372;" d="M246.015,217.896c-3.001-1.408-6.573-0.112-7.978,2.89c-5.338,11.401-16.917,18.769-29.498,18.769
		c-17.951,0-32.554-14.604-32.554-32.554s14.604-32.554,32.554-32.554c13.07,0,24.83,7.771,29.958,19.796
		c1.3,3.048,4.824,4.465,7.873,3.166c3.048-1.3,4.465-4.825,3.166-7.873c-7.018-16.456-23.109-27.089-40.996-27.089
		c-24.567,0-44.554,19.986-44.554,44.554s19.987,44.554,44.554,44.554c17.218,0,33.062-10.08,40.366-25.681
		C250.31,222.872,249.016,219.3,246.015,217.896z"/>
	<path style="fill:#4C4372;" d="M112.054,297.393c-2.376-2.308-6.175-2.255-8.484,0.121l-25.631,26.375
		c-2.31,2.377-2.255,6.175,0.121,8.484c1.166,1.133,2.674,1.697,4.181,1.697c1.564,0,3.127-0.608,4.303-1.818l25.631-26.375
		C114.485,303.5,114.431,299.702,112.054,297.393z"/>
	<path style="fill:#4C4372;" d="M134.928,202.794h-29.352c-3.313,0-6,2.687-6,6c0,3.313,2.687,6,6,6h29.352c3.313,0,6-2.687,6-6
		S138.242,202.794,134.928,202.794z"/>
	<path style="fill:#4C4372;" d="M209.341,65.669c-3.313,0-6,2.687-6,6v33.361c0,3.313,2.687,6,6,6c3.313,0,6-2.687,6-6V71.669
		C215.341,68.355,212.654,65.669,209.341,65.669z"/>
	<path style="fill:#4C4372;" d="M261.533,149.891c-2.344-2.342-6.143-2.343-8.485,0.001l-22.96,22.961
		c-2.343,2.343-2.343,6.142,0,8.485c1.172,1.171,2.707,1.757,4.243,1.757s3.071-0.586,4.243-1.758l22.96-22.961
		C263.876,156.033,263.876,152.234,261.533,149.891z"/>
</g>
<g>
</g>
<g>
</g>
<g>
</g>
<g>
</g>
<g>
</g>
<g>
</g>
<g>
</g>
<g>
</g>
<g>
</g>
<g>
</g>
<g>
</g>
<g>
</g>
<g>
</g>
<g>
</g>
<g>
</g>
</svg>
