<?xml version="1.0" encoding="utf-8"?>
<!-- Generator: Adobe Illustrator 27.9.0, SVG Export Plug-In . SVG Version: 6.00 Build 0)  -->
<svg version="1.1" id="Layer_1" xmlns="http://www.w3.org/2000/svg" xmlns:xlink="http://www.w3.org/1999/xlink" x="0px" y="0px"
	 viewBox="0 0 512 512" style="enable-background:new 0 0 512 512;" xml:space="preserve">
<style type="text/css">
	.st0{fill:#B0B8CF;}
	.st1{fill:#8B95AF;}
	.st2{fill:#C9CEE2;}
	.st3{fill:#F1F6FA;}
	.st4{fill:#E3E7F0;}
	.st5{fill:#FFFFFF;}
	.st6{fill:#CC104A;}
	.st7{fill:#F45170;}
	.st8{fill:#FE90A9;}
</style>
<g id="_x31_6">
	<g>
		<g>
			<path class="st0" d="M118,167.6c-16.8-22.8,35.7-28,35.7-28c44.6-8.7,91.9,7.9,154.6,20.9c62.7,13,107.3,43,126.3,60.2
				c19,17.2-13.1,24.6-13.1,24.6c-52.5-34.6-194.3-61.8-273-51.3C148.4,193.9,134.8,190.4,118,167.6z"/>
		</g>
	</g>
	<g>
		<g>
			<path class="st1" d="M343.3,170c-22.5-7.6-32.6-8.7-63.1-15.7v45.8c21.4,3.6,43,8.2,63.1,13.8V170z"/>
		</g>
		<g>
			<path class="st1" d="M434.5,220.7c-9.5-8.6-25.5-20.5-47-31.8v39.5c13.4,5.3,25,11,33.9,16.9
				C421.4,245.3,453.5,237.8,434.5,220.7z"/>
		</g>
		<g>
			<path class="st1" d="M230.5,143.2c-27.8-5.5-52.8-8.3-76.9-3.6c0,0-52.5,5.2-35.7,28s30.4,26.3,30.4,26.3
				c21.8-2.9,50.2-3,82.1-0.2V143.2z"/>
		</g>
	</g>
	<g>
		<path class="st2" d="M469.3,251.8c-6.3-29.9-30.9-54.2-44.1-62.7c-30-19.3-106.2-54.7-191.7-62.3c-30.5-2.7-51.2-3.5-68.1-2.5
			c-35.7,2.1-69.3,16.8-93.7,41.9c-30.3,31.3-37.2,66.9-24.4,101.8c31.4,88.8,161.9,154.5,321.9,94.7
			C459,329,476.6,286.6,469.3,251.8z M430.6,236.8c-15.9,11.6-74.8,13.7-156.8-4.8c-93.6-21.1-157.1-55.8-155.7-73.7
			c0.2-2.1,1.5-4,3.9-5.8c7.6-5.6,25-8.9,50-8.9c27.4,0,63.9,4,106.8,13.7c92.5,20.9,155.7,55,155.7,73.1
			C434.5,233.2,432.8,235.2,430.6,236.8z"/>
	</g>
	<g>
		<path class="st0" d="M72.4,239.7c0,0-12,13.7-25.1,28.1c-12.8-34.8-5.9-70.5,24.4-101.8c13.2-13.6,29-24.1,46.2-31.1
			C54.4,170.3,72.4,239.7,72.4,239.7z"/>
	</g>
	<g>
		<path class="st0" d="M369.2,362.6c-44.4,16.6-86.2,23.5-124,23.1c24.3-16.1,27.4-55.2,27.4-55.2s151.1,13.1,196.6-78.7
			C476.6,286.6,459,329,369.2,362.6z"/>
	</g>
	<g>
		<g>
			<path class="st3" d="M280.9,148.1c-77.2-17.4-143.3-18.7-164.4-3.2c-5.9,4.3-7.4,9.2-7.7,12.6c-3.6,42.7,169.9,97.8,272,97.8
				c21.3,0,61.4-2.4,63.2-23.4C446.4,201.9,361.8,166.4,280.9,148.1z M430.6,236.8c-15.9,11.6-74.8,13.7-156.8-4.8
				c-93.6-21.1-157.1-55.8-155.7-73.7c0.2-2.1,1.5-4,3.9-5.8c7.6-5.6,25-8.9,50-8.9c27.4,0,63.9,4,106.8,13.7
				c92.5,20.9,155.7,55,155.7,73.1C434.5,233.2,432.8,235.2,430.6,236.8z"/>
		</g>
	</g>
	<g>
		<path class="st4" d="M175.6,383.3c-63.3-15.9-111.7-75.6-127.4-109.5c-4.1-8.9-2-19.3,5.2-25.9c9-8.2,34.3-27.3,75.6-27.3
			c64.1,0,142.1,47.6,174.8,116.6c5.2,11,1.2,23.8-9.2,29.9C261.5,386.5,218.3,394,175.6,383.3z"/>
	</g>
	<g>
		<path class="st5" d="M170.6,371.8c-59.3-14.9-104.8-71.1-119.6-103c-1.9-4.2-0.9-9.1,2.5-12.2c8-7.3,30.5-24.2,67.6-24.2
			c59.4,0,133.3,44.8,164.1,109.9c2.5,5.4,0.6,11.7-4.5,14.6C250.7,374.5,210.6,381.9,170.6,371.8L170.6,371.8z"/>
	</g>
	<g>
		<path class="st2" d="M171.5,374.3c-59.3-14.9-104.8-71.1-119.6-103c-1.9-4.2-0.9-9.1,2.5-12.2c8-7.3,30.5-24.2,67.6-24.2
			c59.4,0,133.3,44.8,164.1,109.9c2.5,5.4,0.6,11.7-4.5,14.6C251.5,377,211.5,384.4,171.5,374.3z"/>
	</g>
	<g>
		<path class="st6" d="M279.2,355.4c-32,18.7-72.9,23.5-108.1,13.9c-35.2-9.3-65.9-33.3-89.2-61.1c-12.4-14.9-21.2-29.2-25.7-38.9
			c-1.1-2.3-0.5-5,1.3-6.7c28.7-26.4,82.6-34.6,144.9,0.8c36.7,20.8,64.9,52.8,79.3,83.4C283.2,350,282.1,353.7,279.2,355.4z"/>
	</g>
	<g>
		<path class="st7" d="M213,374.1c-14.6,0.5-29.5-1.3-42-4.7l-1.9-21.8l31.7-5.6L213,374.1z"/>
	</g>
	<g>
		<path class="st7" d="M262.4,315.6l-36.5,3L183.7,280l18.8-16.5C230.2,279.2,249.5,298.8,262.4,315.6z"/>
	</g>
	<g>
		<path class="st7" d="M141.2,264.4L97.7,278l-29.1-23.7c12.9-8.1,34.7-17,65.4-14L141.2,264.4z"/>
	</g>
	<g>
		<path class="st7" d="M122.1,328.9l-5.7,12.7c-13.4-10.3-25-22-34.5-33.4l18.2-6.9L122.1,328.9z"/>
	</g>
	<g>
		<path class="st8" d="M225.8,318.6L200.9,342l-31.7,5.6l-47.1-18.6l-22-27.5L97.7,278l43.5-13.6l42.5,15.6L225.8,318.6z"/>
	</g>
	<g>
		<path class="st5" d="M97.7,278c15.7-6,29.5-10.7,43.4-15.5c14.8,5.2,45.6,16.1,43.8,15.4c30.5,28.2,41.7,39.4,43.1,40.7
			c-1.4,1.2-9.6,8.7-27.1,23.3c7.8-8.3,15.8-16.4,23.9-24.4l0,2.2c-14.5-12.4-28.5-25.3-42.7-38l0.8,0.5
			c-14.1-5.4-28.3-10.5-42.3-16.1l1.2,0C127.1,270.3,112.5,274.4,97.7,278z"/>
	</g>
</g>
</svg>
