<svg id="Layer_1" enable-background="new 0 0 38 38" height="512" viewBox="0 0 38 38" width="512" xmlns="http://www.w3.org/2000/svg"><g id="_x31_1"><g><g><path d="m13.2071009 16.3109779c-1.1516914 1.4056301-.8747368 4.2332096.9867716 7.5149536 2.6867962 4.7366829 7.655014 8.6264572 11.0973053 8.6884727 0 0-1.2702332 3.1243019-6.1593018 1.362793s-8.5364695-6.7840996-9.5841265-9.9379158-1.8237004-7.0197124 0-7.6283035c1.8237-.6085901 3.6593514 0 3.6593514 0z" fill="#111d33"/></g><g><path d="m13.3915663 22.2132168c-1.108077-2.5792713-1.1422663-4.7332439-.1844711-5.9022522 0 0-1.8356457-.6085768-3.6593266 0-1.4997272.5004673-1.2409391 3.2036762-.5191689 5.9022522z" fill="#1d2943"/></g><g><path d="m17.5962639 28.2663498h-5.6489782c1.7470627 2.3060455 4.2400236 4.5499382 7.1845713 5.6108398 4.8890686 1.7614975 6.1593075-1.3627739 6.1593075-1.3627739-2.2658311-.0408401-5.1926175-1.7404403-7.6949006-4.2480659z" fill="#1d2943"/></g><g><path d="m26.2910213 29.293829c-.4305534-2.775383-2.9395924-7.5640812-4.3652401-9.9830132 0 0-.0023308 0-.0046616-.0023308-4.3931751-1.1337681-8.0646381-3.26404-10.9957428-6.4302597 0 0-3.3757858 1.3689117-3.2291126 6.2579803.1443429 4.8890686 6.2859449 14.1713428 12.1924038 15.5402546 2.5702629.5960121 4.2208977.325943 5.2196465-.4609642v-.0023308c1.2967816-1.0220222 1.4946671-2.9148215 1.1827068-4.9193362zm-4.4187831 4.5817699c-3.4433098-.0605354-8.4115267-3.9508286-11.098196-8.688591-2.68431-4.7330742-2.0720396-8.5232735 1.3689404-8.4604092 3.44098.0605335 8.4091969 3.9508553 11.0958652 8.6862316 2.6866416 4.7354317 2.0743713 8.525631-1.3666096 8.4627686z" fill="#4c5c75"/></g><g><path d="m27.0475101 15.0621529-5.1218815 4.2488327s-.0023289 0-.0046597-.0023308c-4.393177-1.1337967-8.0646105-3.26404-10.9957438-6.4302874l4.7423954-3.7226744c3.2058365 2.7890931 6.9447948 4.8308659 11.3798896 5.9064599z" fill="#111d33"/></g><g><path d="m27.9882355 31.9036808v.0023289c-.7380276.7822189-1.6832314 1.5481834-2.879921 2.3094864v-.0023308c1.2967815-1.0220222 1.4946671-2.9148216 1.1827068-4.9193363-.4305534-2.775383-2.9395924-7.5640812-4.3652401-9.9830132.1027393-.085228 5.4611454-4.5302696 5.1218815-4.2488337 0 0 1.6390114 1.902091 2.7169075 6.8493624.8498001 3.9065781 1.0011063 7.0565415-1.7763347 9.9923363z" fill="#31445b"/></g><g><path d="m26.6594887 10.1217012c0 3.9322405-3.1871929 7.1194334-7.1194324 7.1194334-3.9321833 0-7.121707-3.1871929-7.121707-7.1194334 0-3.9321828 3.1895237-7.1217351 7.121707-7.1217351 3.9322395 0 7.1194324 3.1895524 7.1194324 7.1217351z" fill="#f3f1fc"/></g><g><path d="m26.6573105 10.2508211c-.067524 3.8740082-3.2267818 6.991374-7.1171036 6.991374-3.9321823 0-7.121706-3.1872215-7.121706-7.1194038 0-2.889215 1.7204609-5.375668 4.1929321-6.4931526-.0023022.0419188-.0023022.0861394-.0023022.1280298.0000001 5.2030153 5.3809224 8.5959253 10.0481797 6.4931526z" fill="#e9e7fc"/></g><g><path d="m26.6060982 10.9818563c-.4214039 3.5271196-3.4246674 6.2603388-7.0658913 6.2603388-3.9321823 0-7.121706-3.1872215-7.121706-7.1194038 0-1.8788157.726346-3.5829926 1.9160442-4.8565001-.5435057 4.1065354 2.7072296 7.9784989 7.0681648 7.9784989 2.0557557 0 3.9066048-.870718 5.2033883-2.2629338z" fill="#dedffb"/></g><g><path d="m24.0950069 5.8088655c.8491802 1.090435 1.060154 2.3465185.4705124 2.8057041-.5896206.4591684-1.0457993-.6059465-1.8949795-1.696382-.8491669-1.0904179-1.7700863-1.7936425-1.1804676-2.252811.5896435-.4591855 1.7557679.0530711 2.6049347 1.1434889z" fill="#fff"/></g></g><g><path d="m27.9882355 31.9036808c2.6715488-7.1441307-.655695-13.4988232-2.1186199-15.8638954l1.1780472-.9778032s1.6390114 1.902091 2.7169075 6.8493624c.8498 3.906578 1.0011062 7.0565414-1.7763348 9.9923362z" fill="#1d2943"/></g><g><g><path d="m28.1993294 25.8745689c-.0607834.6947784-.0616817 1.4741344.1693687 1.870697.2267685.3982277.7015171.0295334.8035889-1.0222054.1009731-1.0518303-.2213402-2.0218258-.4839516-2.062561-.2691116-.0495319-.4168834.5266248-.489006 1.2140694z" fill="#fff"/></g><g><path d="m28.2966557 20.7485809c-.7048893-1.6448021-1.6415596-2.0129795-1.6858635-1.4171944-.0571575.5847225.4188709 1.5666771.8195801 2.5461216.4252834.9612656.8176689 1.9149475 1.1569424 1.9603558.3338851.0735836.4134254-1.4331321-.290659-3.089283z" fill="#fff"/></g></g></g></svg>