<svg id="Layer_1" enable-background="new 0 0 38 38" height="512" viewBox="0 0 38 38" width="512" xmlns="http://www.w3.org/2000/svg"><g id="_x31_4"><g><path d="m12.2596245 29.4204369c-1.3195543-.9541245-2.017621-2.329277-2.017621-3.9750595 0-4.244379 3.1514454-7.8369961 6.8624392-10.2094584l-.1496143-3.1403122c-1.9506102 1.0631409-3.7037907 2.1365261-5.1262445 3.5077744-3.0054626 2.896102-4.5938568 6.2988653-4.5938568 9.8410826 0 5.1608105 4.3338709 8.3266621 9.8046408 8.3246746 1.688633 0 5.4953632-.9582291 5.602644-.9958496v-3.2285938c-3.2207186 1.3932952-7.5722983 1.9088477-10.3823874-.1242581z" fill="#b0b8cf"/></g><g><path d="m10.7640848 22.4761009c1.0433855-2.948185 3.5308714-5.4440594 6.3403597-7.2401743l-.149622-3.1403217c-1.9506092 1.0631409-3.7037849 2.136528-5.1262388 3.5077763-2.1540709 2.0756903-3.5799284 4.4116869-4.2150769 6.8727198h3.150578z" fill="#8b95af"/></g><g><path d="m11.8404417 29.0829945c-1.3946428-1.2379055-1.7532978-2.8174629-1.5366096-4.6476078h-3.0257092c-.140636 1.6390648.0507936 3.1665535.8104105 4.6476078z" fill="#8b95af"/></g><g><path d="m19.394186 30.541069c-1.6375961.3074512-3.1944313.3046589-4.5540771 0h-5.7740803c1.9390068 2.2755585 4.9610033 3.2291641 7.9733391 3.2280693 1.688633 0 5.4953632-.9582291 5.602644-.9958496v-3.2285938c-1.8101273.7830677-3.4980088 1.0462723-3.2478257.9963741z" fill="#8b95af"/></g><g><path d="m18.4758053 9.0793934c0 3.3576994-2.7217274 6.0802765-6.0794268 6.0802765-3.3585396 0-6.0802665-2.7225771-6.0802665-6.0802765s2.7217269-6.0794272 6.0802665-6.0794272c3.3576994-.0000001 6.0794268 2.7217273 6.0794268 6.0794272z" fill="#8fabfe"/></g><g opacity=".2"><path d="m12.3667955 4.8142548c.4154978.6817703-.4270973 1.213376-1.6475706 1.957181-1.2207794.7439909-2.3567982 1.418231-2.7722964.7364612-.4154978-.6817704.2370095-1.8373314 1.4577889-2.5813228 1.2204733-.7438049 2.5465804-.7940898 2.9620781-.1123194z" fill="#fff"/></g><g><path d="m18.4755707 9.0791397c0 3.3458624-2.7084274 6.080163-6.0792513 6.080163-2.8286486 0-5.2108302-1.9338989-5.8878922-4.5555668 1.0479898.8602581 2.390327 1.3769665 3.8529611 1.3769665 3.9864979 0 6.8767309-3.7673712 5.886981-7.6047592 1.3596458 1.1154251 2.2272014 2.8076968 2.2272014 4.7031965z" fill="#748bfd"/></g><g opacity=".2"><path d="m18.0919189 11.2097502c-1.0563126 2.8242693-4.0582228 4.4921627-7.0762262 3.7919006.9668942-.7900867 3.9413548-3.0583143 7.0762262-3.7919006z" fill="#111d33"/></g><g><path d="m14.6699982 35.0000343c-5.4946117.0019951-9.8046398-3.1895027-9.8046398-8.3246861 0-3.5422077 1.5883937-6.9449825 4.5938563-9.8410835 2.3038816-2.2209339 5.5963688-4.3034143 10.0479498-5.8131485.9216461-.3034267 1.8655357 2.5478802.9413528 2.855998-5.9735861 1.9726658-12.575882 6.5085459-12.575882 12.7991457 0 1.6457939.6980662 3.0209484 2.0176215 3.975071 2.1488199 1.554678 5.5570803 1.7806759 9.1175184.6069279 6.3101692-2.0808544 11.6738281-8.6490211 11.0767841-14.7456722l2.9945278-.281599c.8629753 9.1826438-8.4651802 18.7690467-18.4090889 18.7690467z" fill="#f1f6fa"/></g><g opacity=".2"><path d="m20.7055092 13.6638746c-.1331253.2259111-.2053795.1754866-1.1500664.5258188-.9595757-.8611813-1.121788-2.2290373-1.1473083-2.7831011.3125687-.1166477.6278744-.2278233.9459152-.3335371.3499451.6506663 1.0862789 2.0258094 1.3514595 2.5908194z" fill="#111d33"/></g><g><path d="m33.0790863 16.2309875c-.1007462.0094738-3.1904411.3000221-2.9945278.281599-.5193539-5.5299911-5.5633144-9.2417679-11.6099014-7.5409737-.0218697-.5486021-.092041-1.0534635-.2378578-1.5601492-.1239223-.4356022-.3043575-.8721051-.5558758-1.3396006 7.8215198-2.1749466 14.700283 2.7416479 15.3981628 10.1591245z" fill="#f1f6fa"/></g><g><path d="m15.1903439 33.5027809c-5.276022.0021782-8.6272297-3.2488499-8.6272297-7.4780998 0-3.1813259 1.3979244-6.2387276 4.0424962-8.8395691 2.0345945-2.0034695 4.9246864-3.8637114 8.8404808-5.2226315.5649986-.1895447 1.1372967.9933147 1.160078 1.8235044-.1189556.1068048-.137495.0650415-1.0507259.4037085-5.5807538 2.0640774-11.6828089 6.4264489-11.6828089 12.4865666 0 1.6457939.6980662 3.0209484 2.0176215 3.975071 2.1488199 1.554678 5.5570803 1.7806759 9.1175184.6069279 3.1448612-1.037056 6.1439495-3.2232533 8.2289848-5.9981441 2.0413151-2.7165794 3.0336838-5.9762745 2.8477993-8.7475281l1.2776375-.1202984c.7937909 8.6364192-7.4641074 17.1104926-16.171852 17.1104926z" fill="#c9cee2"/></g><g><path d="m31.362196 16.3922882-1.2776375.1202984c-.5193539-5.5299911-5.5633144-9.2417679-11.6099014-7.5409737-.0218697-.5486021-.092041-1.0534635-.2378578-1.5601492 6.5681457-1.6337223 12.3867187 2.5127173 13.1253967 8.9808245z" fill="#c9cee2"/></g><g opacity=".2"><path d="m27.0927887 10.5964499c-2.0066147-1.7159863-4.8737373-2.5076332-8.0932236-1.7597179 0 0 1.4553375-3.0980983 4.8878841-2.2180681 2.259081.5791792 3.034916 2.9963178 3.2053395 3.977786z" fill="#111d33"/></g><g><g><path d="m25.1826897 14.0403528c-1.6799927 1.3764639-4.1579609 1.1307726-5.5344238-.549221-1.3768063-1.6804132-1.1303425-4.1583042.5496521-5.5347672 1.6799927-1.3764634 4.1575356-1.130424 5.5343418.5499897 1.3764629 1.6799937 1.1304244 4.1575356-.5495701 5.5339985z" fill="#8fabfe"/></g><g opacity=".2"><path d="m24.8123703 9.2353067c-.1707878.4873762-.7821865.28372-1.654665-.0220156-.8726997-.3058119-1.6757507-.5978088-1.5049648-1.085186.1707878-.4873767 1.0164528-.634614 1.8891506-.3288021.8724804.3057356 1.441267.9486266 1.2704792 1.4360037z" fill="#fff"/></g><g><path d="m25.1827202 14.0401316c-1.6802044 1.3766365-4.1576614 1.1310196-5.5342941-.54918-1.1607113-1.4166651-1.1676712-3.4006529-.1343613-4.8134718-.0008068.8770084.2909431 1.7604551.8905392 2.4922705 1.6342354 1.994607 4.7040329 1.8963032 6.2182922-.1720181-.0007153 1.1375465-.4917793 2.2653532-1.440176 3.0423994z" fill="#748bfd"/></g></g><g><g><path d="m7.8992534 21.992094c.2451272-.4984798.4701238-1.0770092.4126811-1.4380226-.0537834-.3610172-.5124793-.2238579-.891016.5278339-.3777475.7520771-.4175863 1.565218-.234283 1.6710625.1855984.1142445.4611816-.2711029.7126179-.7608738z" fill="#fff"/></g><g><path d="m6.3515067 25.7708912c.0500441 1.4244061.6396852 1.9674454.8440785 1.5377369.2107544-.4177895.1398792-1.2840576.1242175-2.1267834-.039145-.8362961-.0560412-1.6574917-.2949328-1.7888699-.2267785-.1507549-.7195434.9453126-.6733632 2.3779164z" fill="#fff"/></g></g></g></svg>