<svg id="Layer_1" enable-background="new 0 0 38 38" height="512" viewBox="0 0 38 38" width="512" xmlns="http://www.w3.org/2000/svg"><g id="_x31_2"><g><g><path d="m13.1308393 8.552599c.022028-.1101389 10.1988649-3.0178075 10.2869768-3.0618629s5.5443916 6.8443022 5.8849621 7.2938538-.4546604 2.0168667-.4546604 2.0168667l-4.4866352-5.921958c-.5472527-.7212992-1.5555305-1.075212-2.4265633-.8159103-.1240292.0365505-8.0929956 2.3849516-7.6392422 2.2512331.0000001-.0000002-1.1868657-1.6520836-1.1648378-1.7622224z" fill="#4c5c75"/></g></g><g><path d="m16.373333 19.5250835c-.1001911.0921307-.4454145.7915516-3.9650011 3.3764133-3.4997721 2.57197-2.7552376 11.0306396-2.7446642 11.1487083v.0008812c-.1000376-.0847626-1.9881778-1.2385445-3.3605609-3.5685024-.9753962-1.655611-1.6423931-3.8636723-1.0758333-6.5766182.8661222-4.1468697 3.5218234-8.1066742 6.564281-10.7019758.0736293.1015807 4.6561021 6.4236327 4.5817785 6.3210936z" fill="#c9cee2"/></g><g><path d="m6.3031068 30.482584c-.9753962-1.655611-1.6423931-3.8636723-1.0758333-6.5766182 1.3657227-6.5378418 6.564281-10.7019758 6.564281-10.7019758l1.0582151 1.4599962c-1.8829451 1.625658-7.3185172 7.1202564-6.5466628 15.8185978z" fill="#b0b8cf"/></g><g><path d="m27.6956158 28.0216351c-2.070612 2.995779-11.3222828 6.079668-15.7718954 5.110445-4.4496126-.9692192-2.3349447-4.8461113-2.3349447-4.8461113.182066-.0220127 4.4248734-.0736504 9.2076149-2.2468338 2.3190804-1.0546894 4.174696-2.5931053 5.4787445-3.9112453 1.0952168-1.1066818 1.8018703-2.0582867 2.0670853-2.4354038.0793133-.1119041.1198406-.1735764.1198406-.1735764.1027203-.0605469 1.0438118-.9293118 2.2151051-1.2820225 1.1847343-.3495064 2.0041275.0858402 2.4080849 1.0405979.9463118 2.2115993-1.4212228 5.8955212-3.3896352 8.7441502z" fill="#8b95af"/></g><g><path d="m26.7118301 29.0531235c.410656-.3409042.7449436-.6869164.9833355-1.0318317 1.052084-1.5221348 2.217556-3.2830334 2.9307709-4.9303532h-7.3685322c-1.1909199 1.0557747-2.6907024 2.1429558-4.4614544 2.9478512-4.8461142 2.2027798-9.2076159 2.2468338-9.2076159 2.2468338s-.1666384.3061409-.3078623.7674999z" fill="#9ea9c9"/></g><g><g><path d="m31.1671867 16.6843796c-2.170166-1.5816011-6.0171127-1.5604553-10.3565865.0704823-2.0296955.7630844-4.0374565 1.8168221-5.9096003 3.1156101-3.9835129 2.7684555-6.8841352 6.3642654-7.3238091 9.4737129-.2686529 1.9056721.3787899 3.6383972 2.05123 4.6839905.0070562.0061646.0140905.0105743.022028.0149841.0035276.002636.0070553.0043983.0114546.0070457h.0017643v.0008812c1.0344238.6326408 2.3886919.9489479 3.9579563.9489479 7.6541939 0 18.3958473-7.4146729 19.3007507-13.8290405.2511215-1.7825203-.3015251-3.429306-1.755188-4.4866142zm-4.3050975 1.4652786c1.5158386 0 3.2713585.384306 3.4574795 1.8838272.0299454.2317219.0246525.4872475-.0149937.7674446-.4960537 3.5173912-5.7836056 8.3185673-11.5451946 10.4843445-4.2125893 1.5833549-6.913209 1.1789284-7.9449863.3515644-.9952097-.79813-.6879396-2.2579422-.1621218-3.4187183 2.2007341-4.8604069 10.5646028-10.0684624 16.2098169-10.0684624z" fill="#f1f6fa"/></g></g><g opacity=".2"><path d="m17.8527241 21.1181278c-.4802132.2872448-.9489594.5894699-1.4018631.9031391-.0748196-.1038303-1.650034-2.2898083-1.549861-2.150795l-4.1288977-5.7316351c.4678745-.4643364.814146-.763917.952486-.8802299.0803882.1031008 6.2088414 7.9630365 6.1281358 7.8595209z" fill="#111d33"/></g><g><path d="m31.4006958 16.7028809-.0017643-.0035286c.0426674 1.6231117-1.0264378 3.0524235-2.6204262 3.5217991-8.1134529 2.3352928-8.1871643 2.6619644-9.7556744 2.3014736-.1054478-.0450592-1.4261589-.2650127-2.4036636-1.5542927l-4.4866343-5.9219465c-.5180836-.6846247-.7850628-1.4740973-.7832985-2.2697439v-2.7261534c.038415.1041498.4410782 1.1958485.4026632 1.0916977.3709545-.7066526.9780312-1.2749758 1.7252121-1.6133204.3238363-.1475115.5804996-.2052097.7401466-.2555237-.0863581.2978268-.0105839.6317606.2096939.9216499 3.4047565 4.4908619 4.5069904 5.9571362 4.5853081 6.0373669.2925358.3110352.7374897.5057564 1.1727638.5057564.3763409 0 .0603237.0222816 8.0330868-2.3076258.3410015-.1004372.5824242-.3180799.6793346-.6141319.0026455-.0070553.0044098-.014101.0061741-.0211458.0907555-.3004618.0167351-.6396875-.2061882-.9339867l-4.2134609-5.5615644c.6449585.2854791 1.2159176.7295628 1.6467934 1.2978754.1322193.1745272 4.1263676 5.4467392 3.9376812 5.1976757.4381962.6012564.69907.8577442.9604034 1.3947954.0408611-.1032143.4127102-1.0424824.3718491-.9392672v2.4521409z" fill="#9ea9c9"/></g><g opacity=".2"><path d="m31.949625 17.4086514c-.3084221 1.0631962-.896244 2.2947598-1.8943882 2.7746181-1.1604385.554224-4.1985092 1.478508-5.7801018 1.9446201 1.0952168-1.1066818 1.8018703-2.0582867 2.0670853-2.4354038.1001129-.0624161 4.9453526-3.0831604 4.8249664-3.0081062.3044739.2214565.5657311.4673939.7824383.7242718z" fill="#111d33"/></g><g><path d="m31.4006958 16.7028809-.0017643-.0035286c.0426674 1.6231117-1.0264378 3.0524235-2.6204262 3.5217991-8.1134529 2.3352928-8.1871643 2.6619644-9.7556744 2.3014736-.0035172-.0008812-.0070438-.0017624-.0105724-.0026455v-6.2876205c.2925358.3110352.7374897.5057564 1.1727638.5057564.3763409 0 .0603237.0222816 8.0330868-2.3076258.3410015-.1004372.5824242-.3180799.6793346-.6141319.0026455-.0070553.0044098-.014101.0061741-.0211458h1.1648254c.4381962.6012564.69907.8577442.9604034 1.3947954.0408611-.1032143.4127102-1.0424824.3718491-.9392672v2.4521408z" fill="#b0b8cf"/></g><g><path d="m30.6173744 11.8567667-4.4866123-5.9228292c-1.0395832-1.3718462-2.8683643-1.9879282-4.5192242-1.5049453-.1000748.0294995-8.0666609 2.377862-7.6401148 2.2521262-2.4773235.7313662-3.4348278 3.5927958-1.8388901 5.7007871l4.4866343 5.9228296c1.0634155 1.4025898 2.9122219 1.9789371 4.5192127 1.5049458l7.6401253-2.2521267c2.4735756-.7283859 3.4360752-3.5909309 1.8388691-5.7007875zm-2.3992653 2.5737228c-7.9475536 2.3225393-7.6526852 2.3076258-8.0330868 2.3076258-.4352741 0-.880228-.1947212-1.1727638-.5057564-.0783176-.0802307-1.1805515-1.546505-4.5853081-6.0373669-.4622841-.6083736-.250803-1.3541842.479331-1.5692654l4.1059771-1.2106462c3.7012444-1.0711365 3.5667667-1.0969796 3.9271202-1.0969796.4863758 0 .9859581.2440591 1.2714386.6211772.0757618.0999999 4.7790089 6.3078856 4.4866123 5.921947.4557934.6017286.2593709 1.3516933-.4793205 1.5692645z" fill="#c9cee2"/></g><g><path d="m28.7785053 17.5575542-7.6401253 2.2521267c-1.1390762.3359776-2.0257645.0517426-2.1261215.0467014v-3.6240234c.2925358.3110352.7374897.5057564 1.1727638.5057564.3763409 0 .0603237.0222816 8.0330868-2.3076258.3410015-.1004372.5824242-.3180799.6793346-.6141319.0026455-.0070553.0044098-.014101.0061741-.0211458.0907555-.3004618.0167351-.6396875-.2061882-.9339867-.0757637-.1000004-4.677866-6.1743841-4.4866123-5.921947-.3613625-.4773579-1.0643158-.7434368-1.6653042-.5656667l-3.5332546 1.0414691v-2.2195253c2.3994255-.665801 2.7898235-.9295664 3.7394314-.9295664 1.3243141 0 2.5878353.6238232 3.3790722 1.6679487l4.4866123 5.9228292c1.5946007 2.1064186.6386814 4.9712324-1.8388691 5.7007875z" fill="#e3e7f0"/></g><g><path d="m29.2595901 12.4356632-4.4866352-5.921958c-.5472527-.7212992-1.5555305-1.0752115-2.4265633-.8159103-.1240292.036551-8.0929956 2.3849516-7.6392431 2.2512336-1.1907139.3514438-1.6099129 1.6561255-.8423367 2.671536l4.4866133 5.9219465c.5328369.7060165 1.5401325 1.0797882 2.4265842.8159103l7.6392326-2.2512331c1.1906034-.3513946 1.6096994-1.6572942.8423482-2.671525zm-1.041481 1.9948263c-7.9475536 2.3225393-7.6526852 2.3076258-8.0330868 2.3076258-.4352741 0-.880228-.1947212-1.1727638-.5057564-.0783176-.0802307-1.1805515-1.546505-4.5853081-6.0373669-.4622841-.6083736-.250803-1.3541842.479331-1.5692654l4.1059771-1.2106462c3.7012444-1.0711365 3.5667667-1.0969796 3.9271202-1.0969796.4863758 0 .9859581.2440591 1.2714386.6211772.0757618.0999999 4.7790089 6.3078856 4.4866123 5.921947.4557934.6017286.2593709 1.3516933-.4793205 1.5692645z" fill="#f1f6fa"/></g><g><path d="m28.8747654 9.6131153c0 3.6520557-2.9602108 6.6122551-6.6122551 6.6122551-3.6529617 0-6.6131611-2.9601994-6.6131611-6.6122551 0-3.6529498 2.9601994-6.6131492 6.6131611-6.6131492 3.6520443 0 6.6122551 2.9601994 6.6122551 6.6131492z" fill="#b28afd"/></g><g opacity=".3"><path d="m25.164278 4.7671008c1.335762.8512068 1.9759979 2.235518 1.430109 3.0921564-.5460243.856854-1.8989601.5611749-2.8241272-.8045483-.8885574-1.3116813-2.5591717-1.421124-2.0131474-2.2779775.545889-.8566386 2.0710755-.861046 3.4071656-.0096306z" fill="#fff"/></g><g><path d="m28.5300274 11.7272463c-.8819942 2.6151323-3.3543987 4.4980669-6.2673473 4.4980669-3.6530952 0-6.6136169-2.9605322-6.6136169-6.6118526 0-1.7604594.6881428-3.361443 1.8097954-4.5456624-1.4437847 4.2860427 1.7490692 8.7274132 6.2673473 8.7274132 1.8917426.0000004 3.5984668-.7947641 4.8038215-2.0679651z" fill="#986ff9"/></g><g><path d="m22.020071 16.2575245 4.0132866-1.1830206-.3907356.5123014-2.9553948.7930012z" fill="#f1f6fa"/></g><g><g><path d="m10.2839413 18.7604332c.5099592-.4268093 1.0366888-.9509964 1.1488161-1.3740063.1161356-.4212399-.4524412-.4934635-1.2311773.1458378-.7780581.6401043-1.2158442 1.5108547-1.0665092 1.7155685.1477736.2150231.6362275-.0731849 1.1488704-.4874z" fill="#fff"/></g><g><path d="m6.7579708 22.14641c-.6357174 1.5834103-.2535415 2.4636555.1784921 2.0923786.4332199-.3551464.7755723-1.337719 1.1669478-2.2677555.3625565-.9343853.7421446-1.8414555.5443411-2.1010666-.1751518-.2749481-1.245861.6859322-1.889781 2.2764435z" fill="#fff"/></g></g></g></svg>