<svg id="Capa_1" enable-background="new 0 0 508.082 508.082" height="512" viewBox="0 0 508.082 508.082" width="512" xmlns="http://www.w3.org/2000/svg"><g><path d="m115.101 311.592c-4.948 14.844-35.736 107.207-40.694 122.083 14.844-4.948 107.207-35.735 122.084-40.694l41.884-57.94 15.667-81-82.408 17.816z" fill="#ffaa0e"/><path d="m311.592 392.98c14.844 4.948 107.207 35.736 122.083 40.694-4.948-14.845-35.735-107.207-40.694-122.083l-56.94-36.885-82-20.666 17.35 83.342z" fill="#ff801d"/><path d="m392.98 196.49c4.948-14.844 35.735-107.207 40.694-122.083-14.845 4.948-107.207 35.735-122.083 40.694l-38.884 63.605-18.667 75.334 71.667-16.666z" fill="#ff801d"/><path d="m508.082 254.041c-13.995-6.998-101.076-50.538-115.102-57.551-9.376 3.884-129.562 53.666-138.939 57.551 9.376 3.884 129.562 53.666 138.939 57.551 13.997-6.998 101.077-50.538 115.102-57.551z" fill="#ff5a24"/><path d="m254.041 254.041-13.667-71.666-43.884-67.273c-14.845-4.948-107.208-35.736-122.084-40.694 4.948 14.845 35.736 107.207 40.695 122.083l53.089 41.455c10.676 2.001 75.105 14.08 85.851 16.095z" fill="#ffaa0e"/><path d="m196.49 392.98 57.551 115.102 13-127.021-13-127.02c-3.884 9.376-53.667 129.562-57.551 138.939z" fill="#ffd500"/><path d="m254.041 254.041v254.041l57.551-115.102c-3.884-9.376-53.666-129.562-57.551-138.939z" fill="#ffaa0e"/><path d="m196.49 115.102c3.884 9.375 53.666 129.562 57.551 138.939l11-127.021-11-127.02c-6.998 13.996-50.538 101.076-57.551 115.102z" fill="#ffd500"/><path d="m254.041 0v254.041c3.884-9.376 53.666-129.562 57.551-138.939-6.998-13.997-50.538-101.077-57.551-115.102z" fill="#ffaa0e"/><path d="m254.041 254.041c-9.376-3.884-129.562-53.666-138.94-57.551-13.995 6.998-101.076 50.538-115.101 57.551 13.995 6.998 101.076 50.538 115.101 57.551 9.377-3.884 129.563-53.666 138.94-57.551z" fill="#ffd500"/><path d="m227.3 189.482c-6.89-2.297-49.812-16.604-56.727-18.908 2.296 6.889 16.605 49.811 18.909 56.726-6.495 3.247-46.964 23.481-53.483 26.741 6.496 3.248 46.964 23.482 53.483 26.741-2.297 6.89-16.605 49.812-18.909 56.727 6.89-2.297 49.812-16.604 56.727-18.909 3.247 6.496 23.481 46.963 26.741 53.482l13-118.041-13-118.041c-3.248 6.496-23.482 46.963-26.741 53.482z" fill="#ff625c"/><path d="m337.509 337.509c-2.297-6.89-16.604-49.812-18.909-56.727 6.495-3.247 46.964-23.481 53.482-26.741-6.495-3.248-46.964-23.482-53.482-26.741 2.297-6.89 16.604-49.812 18.909-56.726-6.89 2.296-49.812 16.604-56.727 18.908-3.248-6.496-23.481-46.964-26.741-53.482v236.082c3.248-6.496 23.481-46.963 26.741-53.482 6.89 2.297 49.813 16.604 56.727 18.909z" fill="#e5384b"/></g></svg>