<svg height="512pt" viewBox="0 0 512.00021 512" width="512pt" xmlns="http://www.w3.org/2000/svg"><path d="m180.332031 382.089844 326.25-326.246094c1.824219-1.824219 2.910157-4.257812 3.054688-6.835938l2.351562-42.367187c.210938-3.742187-2.886719-6.835937-6.628906-6.6289062l-42.367187 2.3515622c-2.578126.144531-5.007813 1.234375-6.832032 3.058594l-326.25 326.246094zm0 0" fill="#a2abb8"/><path d="m155.121094 364.742188c-2.011719 0-4.023438-.769532-5.5625-2.304688-3.070313-3.070312-3.070313-8.050781 0-11.121094l322.128906-322.128906c3.074219-3.070312 8.050781-3.070312 11.125 0 3.070312 3.074219 3.070312 8.050781 0 11.125l-322.128906 322.125c-1.535156 1.535156-3.550782 2.304688-5.5625 2.304688zm0 0" fill="#c8d2dc"/><path d="m510.539062 32.726562 1.449219-26.085937c.085938-1.5-.371093-2.894531-1.179687-4.015625l-24.382813 46.675781-319.4375 319.441407 13.34375 13.347656 326.25-326.246094c1.824219-1.824219 2.910157-4.257812 3.054688-6.835938zm0 0" fill="#909ba6"/><path d="m505.359375.0117188-42.371094 2.3515622c-1.351562.074219-2.660156.417969-3.867187.984375l6.027344 34.953125c.753906 4.371094 4.179687 7.796875 8.550781 8.550781l34.953125 6.027344c.566406-1.207031.90625-2.519531.984375-3.871094l.902343-16.28125 1.449219-26.085937c.210938-3.746094-2.886719-6.839844-6.628906-6.6289062zm0 0" fill="#c8d2dc"/><path d="m508.652344 52.878906c.566406-1.207031.90625-2.515625.984375-3.867187l1.433593-25.804688.921876-16.566406c.082031-1.5-.371094-2.894531-1.179688-4.015625l-24.261719 46.441406zm0 0" fill="#b9c3cd"/><path d="m125.460938 386.539062 17.796874 17.796876 68.886719 27.554687c3.195313 1.277344 6.84375.527344 9.273438-1.90625l22.324219-22.324219c3.964843-3.964844 1.15625-10.742187-4.449219-10.742187h-21.882813l-37.078125-14.828125-25.210937-25.210938-25.210938-25.214844-14.832031-37.074218v-21.886719c0-5.605469-6.777344-8.414063-10.738281-4.449219l-22.328125 22.324219c-2.429688 2.433594-3.179688 6.082031-1.902344 9.273437l27.554687 68.886719zm0 0" fill="#5f6c75"/><path d="m233.722656 396.917969-15.875 15.875c-2.964844 2.964843-7.414062 3.878906-11.308594 2.320312l-52.902343-21.160156-17.792969-17.796875-17.796875-17.796875-29.660156-74.148437-6.375 6.371093c-2.429688 2.429688-3.179688 6.078125-1.902344 9.273438l27.554687 68.886719 35.59375 35.59375 68.886719 27.554687c3.191407 1.277344 6.839844.527344 9.273438-1.90625l22.324219-22.324219c3.964843-3.964844 1.15625-10.742187-4.449219-10.742187zm0 0" fill="#4e5a61"/><path d="m30.542969 445.855469 77.117187-77.117188 35.59375 35.59375-77.117187 77.117188zm0 0" fill="#d19a75"/><path d="m56.496094 471.808594 77.117187-77.117188 9.640625 9.640625-77.117187 77.117188zm0 0" fill="#c9885b"/><path d="m85.417969 390.984375 22.242187-22.246094 35.59375 35.59375-22.246094 22.246094zm0 0" fill="#f7e5c1"/><path d="m107.664062 368.742188-9.636718 9.640624 21.503906 21.503907c2.457031 2.457031 2.457031 6.441406 0 8.898437l-8.160156 8.15625 9.640625 9.640625 22.246093-22.246093zm0 0" fill="#f3d69e"/><path d="m61.839844 509.480469 10.085937-10.085938c3.355469-3.355469 3.355469-8.800781 0-12.160156l-47.160156-47.160156c-3.359375-3.355469-8.804687-3.355469-12.164063 0l-10.082031 10.085937c-3.359375 3.359375-3.359375 8.804688 0 12.160156l47.160157 47.160157c3.355468 3.359375 8.800781 3.359375 12.160156 0zm0 0" fill="#5f6c75"/><path d="m66.140625 481.453125-22.246094 22.242187 5.785157 5.785157c3.359374 3.359375 8.804687 3.359375 12.160156 0l10.085937-10.085938c3.359375-3.355469 3.359375-8.800781 0-12.160156zm0 0" fill="#4e5a61"/></svg>